HIERARCHY
ROOT Hips
{
	OFFSET	0.00	0.00	0.00
	CHANNELS 6 Xposition Yposition Zposition Zrotation Xrotation Yrotation
	JOINT LeftUpLeg
	{
		OFFSET	 0.126116	-0.014019	-0.065224
		CHANNELS 3 Zrotation Xrotation Yrotation
		JOINT LeftLeg
		{
			OFFSET	 0.000000	 0.000000	 0.569914
			CHANNELS 3 Zrotation Xrotation Yrotation
			JOINT LeftFoot
			{
				OFFSET	 0.000000	 0.000000	 0.544423
				CHANNELS 3 Zrotation Xrotation Yrotation
				JOINT LeftToeBase
				{
					OFFSET	 0.000000	 0.000000	 0.207117
					CHANNELS 3 Zrotation Xrotation Yrotation
					End Site
					{
						OFFSET	 0.000000	 0.000000	 0.207117
					}
				}
			}
		}
	}
	JOINT RightUpLeg
	{
		OFFSET	-0.124023	-0.008373	-0.065224
		CHANNELS 3 Zrotation Xrotation Yrotation
		JOINT RightLeg
		{
			OFFSET	 0.000000	 0.000000	 0.570047
			CHANNELS 3 Zrotation Xrotation Yrotation
			JOINT RightFoot
			{
				OFFSET	 0.000000	 0.000000	 0.544354
				CHANNELS 3 Zrotation Xrotation Yrotation
				JOINT RightToeBase
				{
					OFFSET	 0.000000	 0.000000	 0.207540
					CHANNELS 3 Zrotation Xrotation Yrotation
					End Site
					{
						OFFSET	 0.000000	 0.000000	 0.207540
					}
				}
			}
		}
	}
	JOINT Spine
	{
		OFFSET	 0.000184	-0.007763	 0.117403
		CHANNELS 3 Zrotation Xrotation Yrotation
		JOINT Spine1
		{
			OFFSET	 0.000000	 0.000000	 0.137269
			CHANNELS 3 Zrotation Xrotation Yrotation
			JOINT Spine2
			{
				OFFSET	 0.000000	 0.000000	 0.156879
				CHANNELS 3 Zrotation Xrotation Yrotation
				JOINT LeftShoulder
				{
					OFFSET	 0.080501	-0.002496	 0.160144
					CHANNELS 3 Zrotation Xrotation Yrotation
					JOINT LeftArm
					{
						OFFSET	 0.000000	 0.000000	 0.164363
						CHANNELS 3 Zrotation Xrotation Yrotation
						JOINT LeftForeArm
						{
							OFFSET	 0.000000	 0.000000	 0.364576
							CHANNELS 3 Zrotation Xrotation Yrotation
							JOINT LeftHand
							{
								OFFSET	 0.000000	 0.000000	 0.360812
								CHANNELS 3 Zrotation Xrotation Yrotation
								JOINT LeftHandIndex1
								{
									OFFSET	 0.000000	 0.000000	 0.086006
									CHANNELS 3 Zrotation Xrotation Yrotation
									JOINT LeftHandIndex2
									{
										OFFSET	 0.000000	 0.000000	 0.047236
										CHANNELS 3 Zrotation Xrotation Yrotation
										JOINT LeftHandIndex3
										{
											OFFSET	-0.004284	-0.000551	 0.038166
											CHANNELS 3 Zrotation Xrotation Yrotation
											End Site
											{
												OFFSET	-0.004284	-0.000551	 0.038166
											}
										}
									}
								}
							}
						}
					}
				}
				JOINT Neck
				{
					OFFSET	 0.000000	 0.000000	 0.176489
					CHANNELS 3 Zrotation Xrotation Yrotation
					JOINT Head
					{
						OFFSET	 0.000000	-0.001747	 0.077940
						CHANNELS 3 Zrotation Xrotation Yrotation
						End Site
						{
							OFFSET	 0.000000	-0.001747	 0.077940
						}
					}
				}
				JOINT RightShoulder
				{
					OFFSET	-0.080363	 0.000306	 0.159706
					CHANNELS 3 Zrotation Xrotation Yrotation
					JOINT RightArm
					{
						OFFSET	 0.000000	 0.000000	 0.164196
						CHANNELS 3 Zrotation Xrotation Yrotation
						JOINT RightForeArm
						{
							OFFSET	 0.000000	 0.000000	 0.365611
							CHANNELS 3 Zrotation Xrotation Yrotation
							JOINT RightHand
							{
								OFFSET	 0.000000	 0.000000	 0.360648
								CHANNELS 3 Zrotation Xrotation Yrotation
								JOINT RightHandIndex1
								{
									OFFSET	 0.000000	 0.000000	 0.069977
									CHANNELS 3 Zrotation Xrotation Yrotation
									JOINT RightHandIndex2
									{
										OFFSET	 0.000000	 0.000000	 0.052305
										CHANNELS 3 Zrotation Xrotation Yrotation
										JOINT RightHandIndex3
										{
											OFFSET	 0.009002	-0.000782	 0.042196
											CHANNELS 3 Zrotation Xrotation Yrotation
											End Site
											{
												OFFSET	 0.009002	-0.000782	 0.042196
											}
										}
									}
								}
							}
						}
					}
				}
			}
		}
	}
}
MOTION
Frames:    8
Frame Time: 0.03333334
 0.012440	 0.033409	 1.202086	 5.657507	-0.496314	-2.754287	-3.673329	-12.247650	-171.612400	 1.250114	-38.385610	 0.557263	 49.564410	 80.786030	-53.907570	-2.368492	 31.765300	-0.073336	-4.233173	-32.346320	-175.662100	 11.551600	-49.309860	 9.394845	 37.470920	 80.317980	-35.440530	 2.359014	 32.994220	 0.103084	-7.820047	 8.148849	 1.869432	-2.065557	 1.724299	-1.326316	 3.108611	-2.230705	 1.585680	-94.113690	 58.981620	 175.012300	 18.510840	 36.088810	-40.335000	-2.064250	-0.041900	-0.966420	-2.817790	-27.449820	-9.590836	-4.864764	 19.381190	-2.800020	-3.869735	 21.623430	 2.190769	-4.804257	 5.592731	 0.144201	-0.038371	-5.105393	 0.232141	 1.097546	 1.769852	 2.627762	 89.713760	 61.762470	 179.836400	-20.604830	 55.680720	 10.094870	-1.626148	-2.443597	 12.886590	-3.971952	-12.252090	 0.551343	 6.276668	 23.577250	-0.551264	 2.039072	 43.428330	-7.129513	 0.793716	 23.090620	 3.434985
 0.010862	-0.009671	 1.200611	 6.355428	 0.502829	-3.114651	-4.347385	-10.494270	-171.528200	 1.545011	-37.104330	 0.719340	 53.117080	 81.368850	-57.726850	-2.365694	 32.215450	-0.083599	-5.816291	-35.406840	-175.253400	 11.694230	-42.588300	 8.499030	 52.562880	 80.070180	-52.515800	 2.361223	 32.663180	 0.095421	-9.008737	 7.293962	 1.854274	-2.120645	 2.056258	-1.022280	 2.901891	-2.740684	 1.460622	-94.355790	 58.985810	 174.495700	 17.449390	 33.348300	-42.168290	-3.367895	-0.020130	-1.371901	-4.141787	-31.275380	-10.287190	-4.847316	 19.784770	-2.818197	-3.849682	 21.878050	 2.170399	-4.794402	 5.708673	 0.137408	-0.006284	-5.179050	 0.310725	 0.977048	 1.570541	 2.570104	 89.565410	 61.951070	 179.477700	-19.601050	 56.920820	 7.380992	-2.557081	-2.605419	 13.105000	-3.998236	-14.628540	-0.162658	 6.240534	 21.385670	-0.616384	 2.248164	 41.591540	-7.313524	 1.282730	 20.859530	 3.203326
 0.008481	-0.068383	 1.196934	 6.605818	 1.038689	-3.585901	-4.801549	-6.882431	-171.390200	 1.708809	-34.800400	 0.774042	 54.653010	 81.774710	-59.407090	-2.354785	 33.828330	-0.121008	-4.863986	-36.408760	-174.263200	 10.400880	-31.550770	 5.892983	 76.907880	 78.521090	-77.776810	 2.348801	 34.415260	 0.136504	-10.317870	 6.539769	 2.050997	-2.164914	 3.223482	-0.729901	 2.772142	-3.540054	 1.328337	-94.493480	 58.949270	 174.208300	 15.165060	 30.679190	-44.155730	-4.744879	 0.013401	-1.862869	-6.376895	-35.276660	-10.924250	-4.826616	 20.306300	-2.853910	-3.817016	 22.289310	 2.137222	-4.761430	 6.095581	 0.114560	 0.039410	-5.306861	 0.347272	 0.881784	 1.319602	 2.463989	 89.420870	 62.042760	 179.126400	-17.759360	 57.980180	 4.449691	-4.021937	-2.456035	 11.734190	-4.288804	-17.929360	-1.727457	 6.186158	 18.397410	-0.716017	 2.616137	 38.035760	-7.631906	 1.909972	 17.880890	 2.930338
 0.004123	-0.125752	 1.189430	 6.966329	 1.050252	-3.664557	-5.520878	-2.938894	-171.684700	 2.137761	-32.927550	 0.970536	 45.373790	 81.124530	-50.331550	-2.316182	 38.310570	-0.231234	-4.438164	-37.535760	-173.912500	 10.281210	-24.040400	 4.544068	 56.358410	 75.455970	-57.952030	 2.336734	 35.911380	 0.172677	-12.060670	 6.501047	 2.035744	-2.139876	 3.930158	-0.550313	 2.657682	-4.341021	 1.211863	-94.534330	 59.042610	 174.105800	 12.986160	 29.499650	-45.423900	-5.371379	 0.052277	-2.389689	-9.787628	-39.962560	-13.593790	-4.859246	 20.545430	-3.113874	-3.779045	 22.761840	 2.098658	-4.704543	 6.758157	 0.074878	 0.138744	-5.434958	 0.319224	 0.905005	 1.178789	 2.138714	 89.357300	 61.829260	 178.980500	-15.605610	 58.459080	 0.800953	-5.091270	-2.412762	 11.445200	-4.145172	-22.155200	-2.964564	 6.172882	 15.322840	-0.577732	 2.932827	 34.603780	-7.899307	 2.526167	 14.833430	 2.690434
-0.005034	-0.196797	 1.175689	 7.374471	 0.627253	-2.597813	-6.012784	 2.357189	-173.474400	 1.763227	-31.305850	 0.733019	 24.456060	 76.779010	-28.430520	-2.140580	 49.835190	-0.579576	-2.077703	-41.122540	-173.856800	 6.369503	-22.431540	 2.731726	 20.945580	 66.806120	-18.316800	 2.340818	 35.424330	 0.160786	-14.367980	 6.509593	 0.987853	-2.003666	 5.466620	-0.208949	 2.431131	-5.198539	 0.859701	-94.447210	 59.376150	 174.236800	 10.825100	 28.970060	-47.089860	-6.439959	 0.119281	-3.062540	-14.338950	-44.385660	-16.944650	-4.894817	 20.729350	-3.379240	-3.752431	 23.089560	 2.071637	-4.621000	 7.719738	 0.015994	 0.268789	-5.473759	 0.239570	 1.004118	 1.241981	 2.216118	 89.350110	 61.402700	 178.979200	-13.539650	 58.517840	-3.675018	-5.748973	-2.809608	 13.327900	-4.154420	-27.209100	-3.440593	 6.280615	 11.773550	 0.080279	 3.144818	 32.091000	-8.074232	 3.159122	 11.588430	 2.475159
-0.013569	-0.268192	 1.165683	 8.874446	-0.330125	-1.419799	-5.794287	 8.683754	-175.962600	 0.020966	-27.808970	-0.154769	 10.188690	 63.325600	-10.797730	-1.739751	 61.747940	-1.146119	 0.610953	-41.414300	-173.355000	 6.619453	-22.184430	 2.798890	 2.830733	 53.831060	 2.576411	 2.337449	 35.827110	 0.170613	-16.986630	 6.822227	-0.078093	-2.292631	 6.916674	-0.242768	 2.040612	-5.734931	 0.629460	-94.350390	 59.103030	 174.489000	 9.677666	 28.265530	-48.035760	-7.408081	 0.193543	-3.659101	-16.400920	-45.275740	-18.262200	-4.875305	 21.030680	-3.365880	-3.717767	 23.512120	 2.036451	-4.548384	 8.544437	-0.035748	 0.386202	-5.384720	 0.279108	 0.966223	 1.604978	 2.373348	 89.152670	 61.272380	 178.519400	-12.168760	 58.195220	-5.196630	-5.141907	-2.335197	 12.858590	-2.391932	-30.813780	-1.224038	 6.352292	 9.377289	 0.427793	 3.342843	 29.573350	-8.234212	 3.513050	 9.728507	 2.369275
-0.023584	-0.351002	 1.158058	 10.038770	-0.868256	 0.006039	-1.849014	 13.614450	 179.446700	 1.459314	-27.725490	 0.514876	 2.283332	 43.758840	 1.696673	-1.202127	 69.310210	-1.784308	-2.364897	-39.258540	-177.282800	 6.781554	-22.567720	 2.907786	 0.226598	 45.720650	 6.040389	 2.360032	 32.842570	 0.099573	-19.408750	 6.787199	-0.949146	-3.050333	 7.533006	-1.286210	 1.579681	-5.921639	 0.809265	-94.161940	 59.665830	 174.807800	 9.604561	 28.686290	-47.887360	-7.043528	 0.277271	-4.303782	-18.024610	-45.091570	-20.565020	-4.791069	 21.352500	-2.970136	-3.649161	 24.334380	 1.966837	-4.490678	 9.192498	-0.077238	 0.371846	-5.355859	 0.202492	 0.716711	 1.938429	 2.289435	 89.004680	 60.514980	 178.217700	-11.316970	 57.169110	-6.771090	-3.115283	-1.900741	 13.592430	 1.395019	-33.889160	 2.079220	 6.386740	 8.760396	 0.571820	 3.388025	 28.974730	-8.270206	 3.665993	 8.915678	 2.326844
-0.034386	-0.447203	 1.154219	 8.502764	-1.593010	 1.383249	 8.376188	 16.088140	 172.234700	-0.110111	-30.591040	-0.235544	 4.950622	 31.943110	 4.078257	-2.373841	 30.848080	-0.052660	-2.932554	-35.825120	 178.528200	 5.219130	-24.522220	 2.488228	 0.878973	 46.291050	 7.530210	 2.374338	 30.483780	 0.045988	-19.811680	 7.254251	-1.826704	-3.511928	 6.742241	-1.848187	 1.437199	-5.567863	 0.612584	-94.037900	 59.740800	 175.066500	 9.804194	 29.805170	-45.946750	-6.307725	 0.385406	-5.015109	-18.996910	-45.109650	-21.217000	-4.731124	 21.918960	-2.787646	-3.572446	 25.232360	 1.889028	-4.418267	 9.996477	-0.129746	 0.261035	-5.408842	 0.173337	 0.287849	 1.930205	 2.430254	 89.110950	 60.268470	 178.473600	-11.851040	 56.657060	-6.949497	-0.967089	-1.323897	 13.899240	 5.781081	-36.202100	 5.530771	 6.406817	 10.341970	 0.645055	 3.271696	 30.497610	-8.177143	 3.541762	 9.576298	 2.361146
